<svg xmlns="http://www.w3.org/2000/svg" version="1.2" baseProfile="tiny-ps" viewBox="0 0 64 64">
  <title>FrancePassoire</title>
  <rect width="64" height="64" fill="#FFF6EA"/>
  <path d="M 24 54 L 21 59 L 43 59 L 40 54" stroke="#241405" stroke-width="2.5" stroke-linecap="round" stroke-linejoin="round" fill="none"/>
  <path d="M 8 18 C 8 44, 18 54, 32 54 C 46 54, 56 44, 56 18" fill="#FF7726" stroke="#241405" stroke-width="2.5" stroke-linejoin="round"/>
  <ellipse cx="32" cy="18" rx="24" ry="5.5" fill="#FFF6EA" stroke="#241405" stroke-width="2.5"/>
  <path d="M 11 18 C 11 21.5, 21 23.5, 32 23.5 C 43 23.5, 53 21.5, 53 18" stroke="#241405" stroke-width="2" stroke-linecap="round" fill="none"/>
  <path d="M 8 23 C 2 23, 4 12, 12 15" stroke="#241405" stroke-width="2.5" stroke-linecap="round" fill="none"/>
  <path d="M 56 23 C 62 23, 60 12, 52 15" stroke="#241405" stroke-width="2.5" stroke-linecap="round" fill="none"/>
  <circle cx="21" cy="32" r="2.2" fill="#241405"/>
  <circle cx="32" cy="34" r="2.4" fill="#241405"/>
  <circle cx="43" cy="32" r="2.2" fill="#241405"/>
  <circle cx="26" cy="43" r="2.2" fill="#241405"/>
  <circle cx="38" cy="43" r="2.2" fill="#241405"/>
  <circle cx="32" cy="49" r="2.2" fill="#241405"/>
  <circle cx="17" cy="23.5" r="1.6" fill="#241405"/>
  <circle cx="24" cy="23.5" r="2" fill="#241405"/>
  <circle cx="40" cy="23.5" r="2" fill="#241405"/>
  <circle cx="47" cy="23.5" r="1.6" fill="#241405"/>
</svg>
